<?xml version="1.0" encoding="UTF-8"?>
<svg width="700pt" height="700pt" version="1.1" viewBox="0 0 700 700" xmlns="http://www.w3.org/2000/svg" xmlns:xlink="http://www.w3.org/1999/xlink">
 <defs>
  <symbol id="w" overflow="visible">
   <path d="m19.953-1.1875c-1.0312 0.53125-2.1055 0.93359-3.2188 1.2031-1.1172 0.26953-2.2773 0.40625-3.4844 0.40625-3.6172 0-6.4805-1.0078-8.5938-3.0312-2.1172-2.0195-3.1719-4.7578-3.1719-8.2188 0-3.4766 1.0547-6.2266 3.1719-8.25 2.1133-2.0195 4.9766-3.0312 8.5938-3.0312 1.207 0 2.3672 0.14062 3.4844 0.42188 1.1133 0.27344 2.1875 0.67188 3.2188 1.2031v4.4844c-1.043-0.70703-2.0703-1.2227-3.0781-1.5469-1-0.33203-2.0586-0.5-3.1719-0.5-2 0-3.5742 0.64062-4.7188 1.9219-1.1484 1.2812-1.7188 3.0469-1.7188 5.2969 0 2.2422 0.57031 4 1.7188 5.2812 1.1445 1.2734 2.7188 1.9062 4.7188 1.9062 1.1133 0 2.1719-0.16016 3.1719-0.48438 1.0078-0.33203 2.0352-0.85156 3.0781-1.5625z"/>
  </symbol>
  <symbol id="d" overflow="visible">
   <path d="m14.594-11.844c-0.44922-0.21875-0.90234-0.37891-1.3594-0.48438-0.44922-0.10156-0.90234-0.15625-1.3594-0.15625-1.3359 0-2.3672 0.43359-3.0938 1.2969-0.71875 0.85547-1.0781 2.0859-1.0781 3.6875v7.5h-5.2031v-16.281h5.2031v2.6719c0.66406-1.0625 1.4297-1.8359 2.2969-2.3281 0.875-0.48828 1.9141-0.73438 3.125-0.73438 0.17578 0 0.36328 0.007813 0.5625 0.015625 0.20703 0.011719 0.50391 0.042969 0.89062 0.09375z"/>
  </symbol>
  <symbol id="b" overflow="visible">
   <path d="m18.766-8.1875v1.4844h-12.172c0.125 1.2188 0.5625 2.1367 1.3125 2.75 0.75781 0.60547 1.8164 0.90625 3.1719 0.90625 1.0938 0 2.2109-0.16016 3.3594-0.48438 1.1562-0.32031 2.3359-0.8125 3.5469-1.4688v4.0156c-1.2305 0.46094-2.4609 0.80859-3.6875 1.0469-1.2305 0.23828-2.4648 0.35938-3.7031 0.35938-2.9375 0-5.2266-0.75-6.8594-2.25-1.6367-1.5-2.4531-3.5977-2.4531-6.2969 0-2.6562 0.80078-4.7422 2.4062-6.2656 1.6016-1.5195 3.8125-2.2812 6.625-2.2812 2.5625 0 4.6094 0.77344 6.1406 2.3125 1.5391 1.5312 2.3125 3.5898 2.3125 6.1719zm-5.3594-1.7344c0-0.98828-0.29297-1.7852-0.875-2.3906-0.57422-0.60156-1.3242-0.90625-2.25-0.90625-1.0117 0-1.8359 0.28906-2.4688 0.85938-0.625 0.5625-1.0156 1.375-1.1719 2.4375z"/>
  </symbol>
  <symbol id="a" overflow="visible">
   <path d="m9.7969-7.3281c-1.0859 0-1.9023 0.1875-2.4531 0.5625-0.54297 0.36719-0.8125 0.90625-0.8125 1.625 0 0.65625 0.21875 1.1719 0.65625 1.5469 0.44531 0.36719 1.0625 0.54688 1.8438 0.54688 0.97656 0 1.8008-0.34766 2.4688-1.0469 0.66406-0.69531 1-1.5781 1-2.6406v-0.59375zm7.9531-1.9688v9.2969h-5.25v-2.4062c-0.69922 0.98047-1.4844 1.6992-2.3594 2.1562-0.86719 0.44531-1.9219 0.67188-3.1719 0.67188-1.6875 0-3.0586-0.48828-4.1094-1.4688-1.0547-0.98828-1.5781-2.2695-1.5781-3.8438 0-1.9062 0.65625-3.3008 1.9688-4.1875 1.3125-0.89453 3.375-1.3438 6.1875-1.3438h3.0625v-0.40625c0-0.82031-0.32422-1.4258-0.96875-1.8125-0.64844-0.38281-1.6562-0.57812-3.0312-0.57812-1.125 0-2.168 0.11719-3.125 0.34375-0.96094 0.21875-1.8516 0.55469-2.6719 1v-3.9688c1.1133-0.26953 2.2344-0.47266 3.3594-0.60938 1.125-0.14453 2.25-0.21875 3.375-0.21875 2.9375 0 5.0547 0.57812 6.3594 1.7344 1.3008 1.1562 1.9531 3.0391 1.9531 5.6406z"/>
  </symbol>
  <symbol id="c" overflow="visible">
   <path d="m8.1875-20.906v4.625h5.3594v3.7188h-5.3594v6.9062c0 0.76172 0.14844 1.2773 0.45312 1.5469 0.30078 0.26172 0.89453 0.39062 1.7812 0.39062h2.6875v3.7188h-4.4688c-2.0547 0-3.5117-0.42578-4.375-1.2812-0.85547-0.86328-1.2812-2.3203-1.2812-4.375v-6.9062h-2.5938v-3.7188h2.5938v-4.625z"/>
  </symbol>
  <symbol id="l" overflow="visible">
   <path d="m13.578-13.906v-8.7188h5.2344v22.625h-5.2344v-2.3594c-0.71875 0.96094-1.5117 1.6641-2.375 2.1094-0.85547 0.44531-1.8516 0.67188-2.9844 0.67188-2.0117 0-3.6641-0.79688-4.9531-2.3906-1.2812-1.5938-1.9219-3.6445-1.9219-6.1562 0-2.5078 0.64062-4.5625 1.9219-6.1562 1.2891-1.5938 2.9414-2.3906 4.9531-2.3906 1.125 0 2.1172 0.22656 2.9844 0.67188 0.86328 0.44922 1.6562 1.1484 2.375 2.0938zm-3.4219 10.547c1.1133 0 1.9609-0.40625 2.5469-1.2188 0.58203-0.8125 0.875-1.9922 0.875-3.5469 0-1.5508-0.29297-2.7344-0.875-3.5469-0.58594-0.8125-1.4336-1.2188-2.5469-1.2188-1.1055 0-1.9531 0.40625-2.5469 1.2188-0.58594 0.8125-0.875 1.9961-0.875 3.5469 0 1.5547 0.28906 2.7344 0.875 3.5469 0.59375 0.8125 1.4414 1.2188 2.5469 1.2188z"/>
  </symbol>
  <symbol id="k" overflow="visible">
   <path d="m11.172-3.3594c1.1133 0 1.9609-0.40625 2.5469-1.2188 0.58203-0.8125 0.875-1.9922 0.875-3.5469 0-1.5508-0.29297-2.7344-0.875-3.5469-0.58594-0.8125-1.4336-1.2188-2.5469-1.2188-1.1172 0-1.9766 0.41406-2.5781 1.2344-0.59375 0.8125-0.89062 1.9922-0.89062 3.5312 0 1.543 0.29688 2.7266 0.89062 3.5469 0.60156 0.8125 1.4609 1.2188 2.5781 1.2188zm-3.4688-10.547c0.71875-0.94531 1.5156-1.6445 2.3906-2.0938 0.875-0.44531 1.8789-0.67188 3.0156-0.67188 2 0 3.6445 0.79688 4.9375 2.3906 1.2891 1.5938 1.9375 3.6484 1.9375 6.1562 0 2.5117-0.64844 4.5625-1.9375 6.1562-1.293 1.5938-2.9375 2.3906-4.9375 2.3906-1.1367 0-2.1406-0.22656-3.0156-0.67188-0.875-0.45703-1.6719-1.1602-2.3906-2.1094v2.3594h-5.2031v-22.625h5.2031z"/>
  </symbol>
  <symbol id="h" overflow="visible">
   <path d="m0.35938-16.281h5.2031l4.3906 11.047 3.7188-11.047h5.2031l-6.8438 17.828c-0.6875 1.8125-1.4922 3.0781-2.4062 3.7969-0.91797 0.71875-2.1328 1.0781-3.6406 1.0781h-3v-3.4062h1.625c0.88281 0 1.5234-0.14062 1.9219-0.42188 0.40625-0.28125 0.71875-0.78906 0.9375-1.5156l0.15625-0.45312z"/>
  </symbol>
  <symbol id="g" overflow="visible">
   <path d="m2.7344-21.703h6.25l7.9062 14.891v-14.891h5.2969v21.703h-6.25l-7.8906-14.891v14.891h-5.3125z"/>
  </symbol>
  <symbol id="f" overflow="visible">
   <path d="m2.3281-6.3438v-9.9375h5.2344v1.625c0 0.88672-0.007812 1.9961-0.015625 3.3281-0.011719 1.3359-0.015625 2.2188-0.015625 2.6562 0 1.3125 0.03125 2.2617 0.09375 2.8438 0.070312 0.57422 0.19141 0.99219 0.35938 1.25 0.20703 0.33594 0.48438 0.59375 0.82812 0.78125s0.73828 0.28125 1.1875 0.28125c1.0938 0 1.9453-0.41406 2.5625-1.25 0.625-0.83203 0.9375-1.9922 0.9375-3.4844v-8.0312h5.2031v16.281h-5.2031v-2.3594c-0.79297 0.94922-1.625 1.6523-2.5 2.1094-0.875 0.44531-1.8438 0.67188-2.9062 0.67188-1.875 0-3.3086-0.57812-4.2969-1.7344-0.98047-1.1562-1.4688-2.832-1.4688-5.0312z"/>
  </symbol>
  <symbol id="v" overflow="visible">
   <path d="m1.7031-16.281h14.203v3.625l-8.5781 8.9375h8.5781v3.7188h-14.562v-3.6406l8.5781-8.9219h-8.2188z"/>
  </symbol>
  <symbol id="u" overflow="visible">
   <path d="m2.5-22.625h5.2031v22.625h-5.2031z"/>
  </symbol>
  <symbol id="t" overflow="visible">
   <path d="m2.5-16.281h5.2031v16.281h-5.2031zm0-6.3438h5.2031v4.25h-5.2031z"/>
  </symbol>
  <symbol id="s" overflow="visible">
   <path d="m15.219-15.781v3.9531c-1.1172-0.45703-2.1953-0.80078-3.2344-1.0312-1.0312-0.23828-2.0078-0.35938-2.9219-0.35938-0.99219 0-1.7266 0.125-2.2031 0.375-0.48047 0.24219-0.71875 0.62109-0.71875 1.1406 0 0.41797 0.17969 0.74219 0.54688 0.96875 0.36328 0.21875 1.0156 0.38281 1.9531 0.48438l0.90625 0.125c2.6641 0.34375 4.457 0.90625 5.375 1.6875 0.92578 0.77344 1.3906 1.9844 1.3906 3.6406 0 1.7305-0.64062 3.0312-1.9219 3.9062-1.2734 0.875-3.1797 1.3125-5.7188 1.3125-1.0859 0-2.1992-0.089844-3.3438-0.26562-1.1484-0.16406-2.3281-0.41406-3.5469-0.75v-3.9531c1.0391 0.5 2.1016 0.875 3.1875 1.125 1.0938 0.25 2.2031 0.375 3.3281 0.375 1.0195 0 1.7852-0.13281 2.2969-0.40625 0.51953-0.28125 0.78125-0.70312 0.78125-1.2656 0-0.45703-0.17969-0.80078-0.53125-1.0312-0.35547-0.22656-1.0625-0.40625-2.125-0.53125l-0.90625-0.10938c-2.3242-0.28906-3.9492-0.82812-4.875-1.6094-0.92969-0.78906-1.3906-1.9883-1.3906-3.5938 0-1.7188 0.58594-2.9922 1.7656-3.8281 1.1875-0.83203 3-1.25 5.4375-1.25 0.95703 0 1.9609 0.074219 3.0156 0.21875 1.0625 0.13672 2.2109 0.35938 3.4531 0.67188z"/>
  </symbol>
  <symbol id="r" overflow="visible">
   <path d="m17.844-21.031v4.5938c-1.1992-0.53125-2.3672-0.92969-3.5-1.2031-1.125-0.26953-2.1953-0.40625-3.2031-0.40625-1.3438 0-2.3359 0.1875-2.9688 0.5625-0.63672 0.36719-0.95312 0.93359-0.95312 1.7031 0 0.58594 0.21094 1.0391 0.64062 1.3594 0.42578 0.32422 1.207 0.60547 2.3438 0.84375l2.3906 0.46875c2.4141 0.49219 4.1289 1.2305 5.1406 2.2188 1.0195 0.99219 1.5312 2.3984 1.5312 4.2188 0 2.3984-0.71484 4.1797-2.1406 5.3438-1.418 1.168-3.5859 1.75-6.5 1.75-1.375 0-2.7578-0.13281-4.1406-0.39062-1.3867-0.25781-2.7734-0.64844-4.1562-1.1719v-4.7188c1.3828 0.74219 2.7227 1.2969 4.0156 1.6719 1.2891 0.36719 2.5391 0.54688 3.75 0.54688 1.2188 0 2.1484-0.20312 2.7969-0.60938 0.65625-0.40625 0.98438-0.98438 0.98438-1.7344 0-0.6875-0.22656-1.2109-0.67188-1.5781-0.4375-0.36328-1.3125-0.69141-2.625-0.98438l-2.1719-0.48438c-2.1797-0.46875-3.7656-1.207-4.7656-2.2188-1-1.0195-1.5-2.3945-1.5-4.125 0-2.1562 0.69531-3.8164 2.0938-4.9844 1.3945-1.1641 3.3984-1.75 6.0156-1.75 1.1953 0 2.4258 0.09375 3.6875 0.28125 1.2578 0.17969 2.5625 0.44531 3.9062 0.79688z"/>
  </symbol>
  <symbol id="j" overflow="visible">
   <path d="m13.219-22.625v3.4219h-2.875c-0.74219 0-1.2578 0.13672-1.5469 0.40625-0.29297 0.26172-0.4375 0.71875-0.4375 1.375v1.1406h4.4531v3.7188h-4.4531v12.562h-5.2031v-12.562h-2.5938v-3.7188h2.5938v-1.1406c0-1.7695 0.49219-3.0781 1.4844-3.9219 0.98828-0.85156 2.5195-1.2812 4.5938-1.2812z"/>
  </symbol>
  <symbol id="i" overflow="visible">
   <path d="m18.875-9.9219v9.9219h-5.2344v-7.5625c0-1.4258-0.03125-2.4062-0.09375-2.9375s-0.17188-0.92188-0.32812-1.1719c-0.21094-0.34375-0.49219-0.60938-0.84375-0.79688-0.34375-0.1875-0.73438-0.28125-1.1719-0.28125-1.0938 0-1.9531 0.42188-2.5781 1.2656-0.61719 0.83594-0.92188 1.9922-0.92188 3.4688v8.0156h-5.2031v-22.625h5.2031v8.7188c0.78906-0.94531 1.625-1.6445 2.5-2.0938 0.88281-0.44531 1.8594-0.67188 2.9219-0.67188 1.8828 0 3.3125 0.57812 4.2812 1.7344 0.97656 1.1484 1.4688 2.8203 1.4688 5.0156z"/>
  </symbol>
  <symbol id="e" overflow="visible">
   <path d="m10.25-12.953c-1.1562 0-2.0391 0.41797-2.6406 1.25-0.60547 0.82422-0.90625 2.0156-0.90625 3.5781s0.30078 2.7617 0.90625 3.5938c0.60156 0.82422 1.4844 1.2344 2.6406 1.2344 1.1328 0 2-0.41016 2.5938-1.2344 0.60156-0.83203 0.90625-2.0312 0.90625-3.5938s-0.30469-2.7539-0.90625-3.5781c-0.59375-0.83203-1.4609-1.25-2.5938-1.25zm0-3.7188c2.8008 0 4.9883 0.75781 6.5625 2.2656 1.582 1.5117 2.375 3.6055 2.375 6.2812 0 2.6797-0.79297 4.7734-2.375 6.2812-1.5742 1.5117-3.7617 2.2656-6.5625 2.2656-2.8125 0-5.0117-0.75391-6.5938-2.2656-1.5859-1.5078-2.375-3.6016-2.375-6.2812 0-2.6758 0.78906-4.7695 2.375-6.2812 1.582-1.5078 3.7812-2.2656 6.5938-2.2656z"/>
  </symbol>
  <symbol id="q" overflow="visible">
   <path d="m17.594-13.578c0.65625-1.0078 1.4375-1.7734 2.3438-2.2969 0.90625-0.53125 1.9062-0.79688 3-0.79688 1.8633 0 3.2852 0.57812 4.2656 1.7344 0.97656 1.1484 1.4688 2.8203 1.4688 5.0156v9.9219h-5.2344v-8.5c0.007812-0.125 0.015625-0.25391 0.015625-0.39062 0.007813-0.13281 0.015625-0.32812 0.015625-0.57812 0-1.1562-0.17188-1.9883-0.51562-2.5-0.33594-0.51953-0.88281-0.78125-1.6406-0.78125-0.99219 0-1.7578 0.40625-2.2969 1.2188-0.53125 0.8125-0.80859 1.9922-0.82812 3.5312v8h-5.2344v-8.5c0-1.8008-0.15625-2.957-0.46875-3.4688-0.30469-0.51953-0.85547-0.78125-1.6562-0.78125-1 0-1.7734 0.41406-2.3125 1.2344-0.54297 0.8125-0.8125 1.9805-0.8125 3.5v8.0156h-5.2344v-16.281h5.2344v2.375c0.64453-0.91406 1.3789-1.6016 2.2031-2.0625 0.83203-0.46875 1.75-0.70312 2.75-0.70312 1.125 0 2.1133 0.27344 2.9688 0.8125 0.86328 0.54297 1.5195 1.3047 1.9688 2.2812z"/>
  </symbol>
  <symbol id="p" overflow="visible">
   <path d="m18.875-9.9219v9.9219h-5.2344v-7.5938c0-1.4062-0.03125-2.375-0.09375-2.9062s-0.17188-0.92188-0.32812-1.1719c-0.21094-0.34375-0.49219-0.60938-0.84375-0.79688-0.34375-0.1875-0.73438-0.28125-1.1719-0.28125-1.0938 0-1.9531 0.42188-2.5781 1.2656-0.61719 0.83594-0.92188 1.9922-0.92188 3.4688v8.0156h-5.2031v-16.281h5.2031v2.375c0.78906-0.94531 1.625-1.6445 2.5-2.0938 0.88281-0.44531 1.8594-0.67188 2.9219-0.67188 1.8828 0 3.3125 0.57812 4.2812 1.7344 0.97656 1.1484 1.4688 2.8203 1.4688 5.0156z"/>
  </symbol>
  <symbol id="o" overflow="visible">
   <path d="m2.7344-21.703h9.2969c2.7578 0 4.8789 0.61719 6.3594 1.8438 1.4766 1.2188 2.2188 2.9648 2.2188 5.2344 0 2.2734-0.74219 4.0234-2.2188 5.25-1.4805 1.2305-3.6016 1.8438-6.3594 1.8438h-3.7031v7.5312h-5.5938zm5.5938 4.0469v6.0625h3.1094c1.082 0 1.9141-0.25781 2.5-0.78125 0.59375-0.53125 0.89062-1.2812 0.89062-2.25s-0.29688-1.7109-0.89062-2.2344c-0.58594-0.53125-1.418-0.79688-2.5-0.79688z"/>
  </symbol>
  <symbol id="n" overflow="visible">
   <path d="m2.5-16.281h5.2031v15.984c0 2.1875-0.52734 3.8516-1.5781 5-1.043 1.1445-2.5586 1.7188-4.5469 1.7188h-2.5625v-3.4062h0.89062c0.98828 0 1.6641-0.22656 2.0312-0.67188 0.375-0.44922 0.5625-1.3281 0.5625-2.6406zm0-6.3438h5.2031v4.25h-5.2031z"/>
  </symbol>
  <symbol id="m" overflow="visible">
   <path d="m15.656-15.781v4.25c-0.71094-0.48828-1.418-0.84766-2.125-1.0781-0.71094-0.22656-1.4492-0.34375-2.2188-0.34375-1.4609 0-2.5938 0.42969-3.4062 1.2812-0.80469 0.84375-1.2031 2.0273-1.2031 3.5469 0 1.5234 0.39844 2.7109 1.2031 3.5625 0.8125 0.84375 1.9453 1.2656 3.4062 1.2656 0.8125 0 1.582-0.11719 2.3125-0.35938 0.73828-0.25 1.4141-0.60938 2.0312-1.0781v4.25c-0.8125 0.30469-1.6406 0.52344-2.4844 0.67188-0.83594 0.15625-1.6719 0.23438-2.5156 0.23438-2.9375 0-5.2344-0.75-6.8906-2.25-1.6562-1.5078-2.4844-3.6094-2.4844-6.2969s0.82812-4.7812 2.4844-6.2812c1.6562-1.5078 3.9531-2.2656 6.8906-2.2656 0.85156 0 1.6914 0.074219 2.5156 0.21875 0.83203 0.14844 1.6602 0.37109 2.4844 0.67188z"/>
  </symbol>
 </defs>
 <g>
  <path d="m578.48 0h-456.96c-8.9648 0.011719-17.562 3.5781-23.902 9.918-6.3398 6.3398-9.9062 14.938-9.918 23.902v241.45c0.011719 8.9648 3.5781 17.559 9.918 23.902 6.3398 6.3398 14.938 9.9062 23.902 9.918h206.96v34.027h-28.695c-6.4258-0.003906-12.617 2.4102-17.344 6.7617-4.7266 4.3516-7.6445 10.324-8.168 16.73-0.52734 6.4023 1.3789 12.77 5.332 17.836l-91.402 91.402c-5.2109 5.3203-7.2109 13.004-5.2578 20.188 1.9492 7.1875 7.5625 12.801 14.75 14.75 7.1836 1.9531 14.867-0.046875 20.188-5.2578l110.6-110.59v144.08c-0.09375 5.6289 2.0742 11.055 6.0195 15.07 3.9453 4.0117 9.3398 6.2734 14.969 6.2734 5.625 0 11.02-2.2617 14.965-6.2734 3.9453-4.0156 6.1133-9.4414 6.0195-15.07v-144.08l110.61 110.59c5.3203 5.2109 13.004 7.2109 20.188 5.2578 7.1875-1.9492 12.801-7.5625 14.75-14.75 1.9531-7.1836-0.046875-14.867-5.2578-20.188l-91.414-91.402c3.9531-5.0664 5.8594-11.434 5.332-17.836-0.52344-6.4062-3.4414-12.379-8.168-16.73-4.7266-4.3516-10.918-6.7656-17.344-6.7617h-28.695v-34.027h208.03c8.9648-0.011719 17.562-3.5781 23.902-9.918 6.3398-6.3438 9.9062-14.938 9.918-23.902v-241.45c-0.011719-8.9648-3.5781-17.562-9.918-23.902-6.3398-6.3398-14.938-9.9063-23.902-9.918zm-372.97 493.15c-1.3633 1.3594-3.5703 1.3594-4.9336 0-1.3594-1.3633-1.3594-3.5703 0-4.9336l94.371-94.371c1.5977 0.30859 3.2148 0.46484 4.8398 0.46484h4.5625zm143.96 49.344c-1.9141-0.023438-3.4648-1.5664-3.4883-3.4844v-144.7h7v144.7c-0.027344 1.9219-1.5859 3.4727-3.5117 3.4844zm149.89-51.828c0.007813 0.92188-0.35547 1.8086-1.0039 2.4648-1.375 1.3398-3.5625 1.3398-4.9336 0l-98.84-98.82h4.5625c1.625 0 3.2422-0.15625 4.8398-0.46484l94.352 94.371c0.65625 0.65234 1.0273 1.5391 1.0234 2.4648zm-92.117-121.96c-0.003906 4.4727-3.625 8.0977-8.0977 8.1055h-99.363c-4.4766 0-8.1016-3.6289-8.1016-8.1055 0-4.4727 3.625-8.1016 8.1016-8.1016h99.363c4.4727 0.007813 8.0938 3.6328 8.0977 8.1016zm-54.289-25.617h-6.9766v-34.008h7zm241.87-67.848c-0.007813 4.3281-1.7305 8.4727-4.7891 11.531-3.0586 3.0625-7.207 4.7812-11.535 4.7852h-456.98c-4.3281-0.003906-8.4727-1.7227-11.535-4.7852-3.0586-3.0586-4.7812-7.2031-4.7891-11.531v-241.43c0.007813-4.3281 1.7305-8.4727 4.7891-11.535 3.0625-3.0586 7.207-4.7773 11.535-4.7812h456.94c4.3242 0.003906 8.4727 1.7227 11.535 4.7812 3.0586 3.0625 4.7812 7.207 4.7891 11.535zm-305.26-79.246h-23.961c-4.832 0-8.75 3.918-8.75 8.75v53.617c0 2.3242 0.91797 4.5508 2.5625 6.1914 1.6406 1.6406 3.8672 2.5625 6.1875 2.5625h23.961c2.3203 0 4.5469-0.92188 6.1875-2.5664 1.6406-1.6406 2.5625-3.8672 2.5586-6.1875v-53.617c0-4.8281-3.9141-8.7461-8.7461-8.75zm-8.75 53.617h-6.4766v-36.125h6.4648zm56.672-78.133h-23.965c-4.832 0.003906-8.7461 3.9219-8.7461 8.7539v78.117c0 2.3203 0.91797 4.5469 2.5586 6.1875 1.6406 1.6445 3.8672 2.5664 6.1875 2.5664h23.965c2.3242 0 4.5508-0.92188 6.1914-2.5625 1.6406-1.6406 2.5625-3.8672 2.5625-6.1914v-78.117c0-2.3242-0.92188-4.5469-2.5664-6.1914-1.6406-1.6406-3.8672-2.5625-6.1875-2.5625zm-8.75 78.133h-6.4648v-60.629h6.4648zm56.668-106.32h-23.961c-4.832 0.003907-8.7461 3.9219-8.7461 8.75v106.3c-0.003907 2.3203 0.91797 4.5469 2.5586 6.1875 1.6406 1.6445 3.8672 2.5664 6.1875 2.5664h23.961c2.3203 0 4.5469-0.92188 6.1875-2.5625 1.6445-1.6406 2.5625-3.8672 2.5625-6.1914v-106.31c0-2.3203-0.92188-4.5469-2.5625-6.1875-1.6406-1.6445-3.8672-2.5664-6.1875-2.5664zm-8.7461 106.32h-6.4648v-88.82h6.4648zm56.672-133.45h-23.961c-4.8125 0.007813-8.7148 3.9062-8.7344 8.7188v133.45c0 2.3203 0.92188 4.5469 2.5625 6.1875 1.6406 1.6445 3.8672 2.5625 6.1914 2.5625h23.961c2.3203 0 4.5469-0.92188 6.1836-2.5625 1.6406-1.6406 2.5625-3.8672 2.5625-6.1875v-133.45c-0.019531-4.8242-3.9375-8.7266-8.7656-8.7188zm-8.75 133.45h-6.4648v-115.97h6.4648zm-164.83-70.5c-3.9648 2.6758-9.3477 1.668-12.078-2.2617-2.7305-3.9258-1.8008-9.3203 2.0898-12.109l50.484-35.078h-0.003906c1.4648-1.0195 3.207-1.5664 4.9922-1.5664h20.254l25.773-22.258v0.003906c1.5898-1.375 3.6211-2.1328 5.7188-2.1289h18.887l25.707-19.398c-4.2031-1.2969-6.7891-5.5195-6.0312-9.8555 0.75391-4.3359 4.6133-7.4336 9.0078-7.2344l21.695 0.98828h0.003906c2.5352 0.11719 4.8945 1.3281 6.4688 3.3164 1.5703 1.9922 2.2031 4.5703 1.7266 7.0625l-3.9336 20.637h0.003906c-0.79297 4.1172-4.3945 7.0977-8.5898 7.1055-0.55469 0-1.1055-0.050782-1.6445-0.15625-4.1641-0.79297-7.1602-4.457-7.1094-8.6953l-29.109 21.965h0.003906c-1.5195 1.1523-3.3711 1.7812-5.2734 1.7852h-18.535l-25.746 22.234c-1.5898 1.375-3.6211 2.1289-5.7188 2.1289h-20.812zm-43.262-69.422v-10.285c-0.019531-0.21094-0.1875-0.37891-0.39844-0.39062-4.7383-0.011719-9.2773-1.9023-12.625-5.25-3.3477-3.3477-5.2344-7.8867-5.25-12.625v-10.305c0.003906-3.1758 0.85156-6.2969 2.4609-9.0391 1.6055-2.7383 3.9141-5.0039 6.6836-6.5586v-3.3047c0-4.832 3.918-8.7539 8.7539-8.7539 4.832 0 8.75 3.9219 8.75 8.7539v3.3047c2.7734 1.5547 5.0781 3.8203 6.6875 6.5586 1.6055 2.7422 2.4531 5.8633 2.457 9.0391v1.5781c0.0625 2.3594-0.83203 4.6445-2.4805 6.3359-1.6445 1.6914-3.9062 2.6445-6.2656 2.6445-2.3633 0-4.6211-0.95313-6.2695-2.6445-1.6484-1.6914-2.543-3.9766-2.4805-6.3359v-1.5781c-0.015625-0.21484-0.1875-0.38281-0.39844-0.39844-0.21484 0.011719-0.38672 0.18359-0.39844 0.39844v10.277c0.011718 0.21484 0.18359 0.38672 0.39844 0.39844 4.7344 0.011719 9.2734 1.8984 12.621 5.25 3.3516 3.3477 5.2383 7.8867 5.25 12.621v10.285c-0.003906 3.1758-0.85156 6.2969-2.457 9.0352-1.6094 2.7422-3.918 5.0078-6.6875 6.5586v3.3086c0 4.832-3.918 8.75-8.75 8.75-4.8359 0-8.7539-3.918-8.7539-8.75v-3.3086c-2.7695-1.5508-5.0781-3.8164-6.6836-6.5586-1.6094-2.7383-2.457-5.8594-2.4609-9.0352-0.0625-2.3594 0.83203-4.6445 2.4805-6.3359 1.6484-1.6914 3.9102-2.6445 6.2695-2.6445s4.6211 0.95312 6.2695 2.6445c1.6445 1.6914 2.5391 3.9766 2.4766 6.3359 0.015625 0.21094 0.1875 0.37891 0.40234 0.39062 0.20312-0.011719 0.37109-0.16406 0.39844-0.36719zm-0.39844 46.336c17.441 0 34.172-6.9297 46.508-19.266 12.332-12.332 19.262-29.062 19.262-46.508 0-17.441-6.9297-34.172-19.266-46.504-12.336-12.336-29.066-19.266-46.508-19.262-17.445 0-34.176 6.9297-46.508 19.266-12.332 12.336-19.262 29.066-19.262 46.508 0.019532 17.438 6.957 34.156 19.285 46.484 12.332 12.328 29.051 19.266 46.488 19.281zm0-114.03c12.797 0 25.07 5.0859 34.121 14.133 9.0508 9.0508 14.133 21.324 14.133 34.121 0 12.801-5.082 25.074-14.133 34.125-9.0508 9.0469-21.324 14.133-34.121 14.133-12.801 0-25.074-5.0859-34.121-14.133-9.0508-9.0508-14.137-21.324-14.137-34.125 0.019531-12.793 5.1094-25.055 14.152-34.102 9.0469-9.0469 21.312-14.137 34.105-14.152zm-92.199 133.18c0-4.832 3.918-8.75 8.75-8.75h51.176c2.3594-0.0625 4.6445 0.83203 6.3359 2.4805 1.6914 1.6484 2.6445 3.9062 2.6445 6.2695 0 2.3594-0.95312 4.6211-2.6445 6.2656-1.6914 1.6484-3.9766 2.543-6.3359 2.4805h-51.176c-4.8281 0-8.7461-3.9141-8.75-8.7461zm0 27.727c0-4.832 3.918-8.75 8.75-8.75h71.844c2.3594-0.0625 4.6445 0.83203 6.3359 2.4805 1.6875 1.6445 2.6445 3.9062 2.6445 6.2656 0 2.3633-0.95703 4.6211-2.6445 6.2695-1.6914 1.6484-3.9766 2.543-6.3359 2.4805h-71.844c-4.8281 0-8.7461-3.9141-8.75-8.7461zm108.97 27.719c0 4.8359-3.918 8.7539-8.75 8.7539h-91.473c-2.3594 0.0625-4.6406-0.83203-6.332-2.4805-1.6914-1.6484-2.6445-3.9062-2.6445-6.2695 0-2.3594 0.95313-4.6211 2.6445-6.2695 1.6914-1.6445 3.9727-2.5391 6.332-2.4766h91.473c4.832 0 8.75 3.9141 8.75 8.7422zm0 27.727c0 4.8359-3.918 8.7539-8.75 8.7539h-91.473c-2.3594 0.058594-4.6406-0.83594-6.332-2.4805-1.6914-1.6484-2.6445-3.9102-2.6445-6.2695s0.95313-4.6211 2.6445-6.2695c1.6914-1.6445 3.9727-2.5391 6.332-2.4805h91.473c4.832 0 8.75 3.918 8.75 8.7461zm255.66-140.34h63.965c4.5352-0.003907 8.8867-1.8086 12.094-5.0156 3.207-3.2109 5.0117-7.5586 5.0156-12.094v-30.508c-0.003906-4.5391-1.8086-8.8867-5.0156-12.098-3.207-3.207-7.5586-5.0117-12.094-5.0195h-63.965c-4.5391 0.003906-8.8906 1.8086-12.098 5.0195-3.2109 3.207-5.0156 7.5586-5.0195 12.098v30.508c0.003906 4.5352 1.8086 8.8867 5.0195 12.094 3.207 3.207 7.5586 5.0117 12.098 5.0156zm0.38281-47.23h63.195v29.734h-63.199zm83.598 80.191c0 4.8359-3.918 8.7539-8.75 8.7539h-63.746c-4.832 0-8.75-3.918-8.75-8.7539 0-4.832 3.918-8.75 8.75-8.75h63.746c4.832 0 8.75 3.918 8.75 8.75zm0 35.793c0 4.832-3.918 8.75-8.75 8.75h-95.66c-4.7422-0.12109-8.5234-4.0039-8.5234-8.7461 0-4.7461 3.7812-8.625 8.5234-8.75h95.66c4.832 0 8.7461 3.9141 8.75 8.7461zm0 35.797c0 4.8359-3.918 8.7539-8.75 8.7539h-95.66c-4.832 0-8.75-3.918-8.75-8.7539 0-4.832 3.918-8.75 8.75-8.75h95.66c2.3203 0 4.5469 0.92188 6.1875 2.5625s2.5625 3.8672 2.5625 6.1875zm0 35.793c0 4.8359-3.918 8.7539-8.75 8.7539h-95.66c-4.7422-0.125-8.5234-4.0039-8.5234-8.75s3.7812-8.625 8.5234-8.75h95.66c4.832 0 8.7461 3.918 8.75 8.7461z"/>
  <use x="70" y="649.363281" xlink:href="#w"/>
  <use x="91.859375" y="649.363281" xlink:href="#d"/>
  <use x="106.550781" y="649.363281" xlink:href="#b"/>
  <use x="126.753906" y="649.363281" xlink:href="#a"/>
  <use x="146.851562" y="649.363281" xlink:href="#c"/>
  <use x="161.09375" y="649.363281" xlink:href="#b"/>
  <use x="181.292969" y="649.363281" xlink:href="#l"/>
  <use x="212.988281" y="649.363281" xlink:href="#k"/>
  <use x="234.308594" y="649.363281" xlink:href="#h"/>
  <use x="264.097656" y="649.363281" xlink:href="#g"/>
  <use x="289.027344" y="649.363281" xlink:href="#f"/>
  <use x="310.230469" y="649.363281" xlink:href="#v"/>
  <use x="327.570312" y="649.363281" xlink:href="#f"/>
  <use x="348.773438" y="649.363281" xlink:href="#u"/>
  <use x="358.984375" y="649.363281" xlink:href="#t"/>
  <use x="369.195313" y="649.363281" xlink:href="#s"/>
  <use x="397.296875" y="649.363281" xlink:href="#r"/>
  <use x="418.75" y="649.363281" xlink:href="#h"/>
  <use x="438.167969" y="649.363281" xlink:href="#a"/>
  <use x="458.265625" y="649.363281" xlink:href="#j"/>
  <use x="471.226563" y="649.363281" xlink:href="#a"/>
  <use x="491.328125" y="649.363281" xlink:href="#a"/>
  <use x="511.425781" y="649.363281" xlink:href="#i"/>
  <use x="70" y="679.148438" xlink:href="#j"/>
  <use x="82.960938" y="679.148438" xlink:href="#d"/>
  <use x="97.648438" y="679.148438" xlink:href="#e"/>
  <use x="118.113281" y="679.148438" xlink:href="#q"/>
  <use x="159.523438" y="679.148438" xlink:href="#c"/>
  <use x="173.761719" y="679.148438" xlink:href="#i"/>
  <use x="194.964844" y="679.148438" xlink:href="#b"/>
  <use x="225.539062" y="679.148438" xlink:href="#g"/>
  <use x="250.46875" y="679.148438" xlink:href="#e"/>
  <use x="270.933594" y="679.148438" xlink:href="#f"/>
  <use x="292.140625" y="679.148438" xlink:href="#p"/>
  <use x="323.714844" y="679.148438" xlink:href="#o"/>
  <use x="345.546875" y="679.148438" xlink:href="#d"/>
  <use x="360.238281" y="679.148438" xlink:href="#e"/>
  <use x="380.699219" y="679.148438" xlink:href="#n"/>
  <use x="390.910156" y="679.148438" xlink:href="#b"/>
  <use x="411.113281" y="679.148438" xlink:href="#m"/>
  <use x="428.769531" y="679.148438" xlink:href="#c"/>
 </g>
</svg>
